<svg width="64" height="48" viewBox="0 0 64 48" xmlns="http://www.w3.org/2000/svg">
  <rect width="64" height="48" fill="#b22234"/>
  <g fill="#ffffff">
    <rect y="8" width="64" height="8"/>
    <rect y="24" width="64" height="8"/>
    <rect y="40" width="64" height="8"/>
  </g>
  <rect width="28" height="24" fill="#3c3b6e"/>
  <g fill="#ffffff">
    <circle cx="5" cy="4" r="1"/>
    <circle cx="11" cy="4" r="1"/>
    <circle cx="17" cy="4" r="1"/>
    <circle cx="23" cy="4" r="1"/>
    <circle cx="8" cy="8" r="1"/>
    <circle cx="14" cy="8" r="1"/>
    <circle cx="20" cy="8" r="1"/>
    <circle cx="26" cy="8" r="1"/>
    <circle cx="5" cy="12" r="1"/>
    <circle cx="11" cy="12" r="1"/>
    <circle cx="17" cy="12" r="1"/>
    <circle cx="23" cy="12" r="1"/>
    <circle cx="8" cy="16" r="1"/>
    <circle cx="14" cy="16" r="1"/>
    <circle cx="20" cy="16" r="1"/>
    <circle cx="26" cy="16" r="1"/>
    <circle cx="5" cy="20" r="1"/>
    <circle cx="11" cy="20" r="1"/>
    <circle cx="17" cy="20" r="1"/>
    <circle cx="23" cy="20" r="1"/>
  </g>
</svg>
