<svg width="64" height="48" viewBox="0 0 64 48" xmlns="http://www.w3.org/2000/svg">
  <rect width="64" height="48" fill="#012169"/>
  <path fill="#ffffff" d="M0 0h9L64 34v14h-9L0 14V0zm64 0v14L9 48H0V34L55 0h9z" opacity="0.8"/>
  <path fill="#ffffff" d="M26 0h12v48H26z"/>
  <path fill="#ffffff" d="M0 18h64v12H0z"/>
  <path fill="#c8102e" d="M0 20h64v8H0z"/>
  <path fill="#c8102e" d="M28 0h8v48h-8z"/>
  <path fill="#c8102e" d="M0 0l26 16h-6L0 5V0zm64 0v5L44 16h-6L64 0zM0 48v-5l20-11h6L0 48zm64 0L38 32h6l20 11v5z" opacity="0.8"/>
</svg>
